<?xml version="1.0" encoding="utf-8"?>
<svg version="1.1" xmlns="http://www.w3.org/2000/svg" xmlns:xlink="http://www.w3.org/1999/xlink" x="0px" y="0px" viewBox="0 0 260 114" style="enable-background:new 0 0 260 114;" xml:space="preserve">
	<path fill="#ED2224" d="M31.6,75.8c-1.8,0-5.2-0.5-5.2-5.2c0.1-2.4,0.5-4.7,1.2-7c1.9-5.4,5.4-6.5,7.7-6.5H46l1.5-8.5h-13c-5.3-0.1-10.5,1.8-14.6,5.2c-4.4,4-6.9,11.2-6.9,16.6c0,5.9,2.5,14.2,14.3,14.2h13.1l1.8-9L31.6,75.8z"/>
	<polygon fill="#000000" points="39.1,31 36.9,42 55.2,42 46.9,84.8 62.3,84.8 70.5,42 88.4,42 90.6,31 "/>
	<path fill="#000000" d="M245.2,50.4c-2.2-1.3-4.1-1.6-8.5-1.6h-52.9l-1.8,9.2c-0.4-1.3-0.9-2.6-1.7-3.7c-0.9-1.3-2.1-2.4-3.5-3.2c-1.3-0.8-2.7-1.4-4.2-1.7c-1.4-0.3-2.9-0.5-4.3-0.6h-19.7l-5.9,29.8L138,48.7h-18.1l-17.5,31.9l-0.1-6.6c0-1.6-0.6-3.2-1.7-4.4c-1.1-1.1-2.5-1.7-4.1-1.9v-0.1c2-0.3,3.9-1,5.5-2.1c2.9-1.8,4.6-4.9,4.6-8.3c0.1-2.9-1.6-5.6-4.2-6.9c-1.7-0.9-3.7-1.4-5.6-1.5H73.7L72,57.2h16.1c0.9,0,4.5,0,4.5,3c0,1.3-0.6,2.6-1.8,3.3c-1.5,0.7-3.1,1-4.8,0.8H70.7l-4,20.4h13l2.5-12.7h3c1-0.1,2.1,0.2,2.8,0.9c0.6,0.8,0.8,1.8,0.7,2.7l-0.4,9h25.5l3.2-6.8h11.7l0.5,6.8H161c5.3,0.1,10.5-1.8,14.6-5.3c1-0.9,1.8-1.9,2.6-2.9l-1.6,8.2h28.6l1.8-9.3h-15.3l1-4.9h12.8l1.6-8.3h-12.8l1-5.2h35.1c2.2,0,4.6,0.5,4.6,2.9c0,2.7-2.2,4.2-4.8,4.2h-17.7l-4,20.4H222l2.5-12.7h3c1-0.1,2.1,0.2,2.9,0.9c0.5,0.8,0.8,1.8,0.7,2.7l-0.4,9h14l-0.1-10.5c0.1-1.8-0.6-3.6-1.9-4.9c-1.1-0.9-2.4-1.5-3.8-1.7v-0.1c2.4-0.3,4.6-1.3,6.5-2.8c2.3-1.9,3.7-4.7,3.7-7.7C249.1,54.3,247.6,51.7,245.2,50.4z M121.5,68.7l5.4-11.7h0.2l0.9,11.7H121.5z M167.1,69.5c-1.9,5.5-5.4,6-7.6,6H157l3.6-18.4h2.6c1.8,0,5.2,0.4,5.2,5.1C168.3,64.8,167.9,67.2,167.1,69.5z"/>
</svg>
